<mxfile host="65bd71144e">
    <diagram id="s91VI-0X1gxRH4TqFIQe" name="Page-1">
        <mxGraphModel dx="736" dy="502" grid="1" gridSize="10" guides="1" tooltips="1" connect="1" arrows="1" fold="1" page="1" pageScale="1" pageWidth="827" pageHeight="1169" math="0" shadow="0">
            <root>
                <mxCell id="0"/>
                <mxCell id="1" parent="0"/>
                <mxCell id="4" value="rg-prd-us-001" style="aspect=fixed;html=1;points=[];align=center;image;fontSize=12;image=img/lib/azure2/general/Resource_Groups.svg;" vertex="1" parent="1">
                    <mxGeometry x="110" y="40" width="48" height="45.18" as="geometry"/>
                </mxCell>
                <mxCell id="5" value="" style="fontStyle=0;verticalAlign=top;align=center;spacingTop=-2;fillColor=none;rounded=0;whiteSpace=wrap;html=1;strokeColor=#919191;strokeWidth=2;dashed=1;container=1;collapsible=0;expand=0;recursiveResize=0;" vertex="1" parent="1">
                    <mxGeometry x="110" y="40" width="630" height="360" as="geometry"/>
                </mxCell>
                <mxCell id="6" value="Vnet-prd-us-001&lt;br&gt;10.1.0.0/16" style="verticalLabelPosition=bottom;html=1;verticalAlign=top;align=center;strokeColor=none;fillColor=#00BEF2;shape=mxgraph.azure.virtual_network;pointerEvents=1;" vertex="1" parent="5">
                    <mxGeometry x="50" y="280" width="50" height="27.500000000000004" as="geometry"/>
                </mxCell>
                <mxCell id="9" value="snet-prd-us-001&lt;br&gt;10.1.1.0/24" style="sketch=0;outlineConnect=0;gradientColor=none;html=1;whiteSpace=wrap;fontSize=12;fontStyle=0;shape=mxgraph.aws4.group;grIcon=mxgraph.aws4.group_subnet;strokeColor=#879196;fillColor=none;verticalAlign=top;align=left;spacingLeft=30;fontColor=#879196;dashed=0;" vertex="1" parent="5">
                    <mxGeometry x="70" y="80" width="190" height="220" as="geometry"/>
                </mxCell>
                <mxCell id="11" value="Ubuntu Server&amp;nbsp;&lt;br&gt;VM_WEB" style="sketch=0;aspect=fixed;html=1;points=[];align=center;image;fontSize=12;image=img/lib/mscae/VM_Linux.svg;" vertex="1" parent="5">
                    <mxGeometry x="140" y="157" width="50" height="46" as="geometry"/>
                </mxCell>
                <mxCell id="12" value="Vnet-prd-us-002&lt;br&gt;10.2.0.0/16" style="verticalLabelPosition=bottom;html=1;verticalAlign=top;align=center;strokeColor=none;fillColor=#00BEF2;shape=mxgraph.azure.virtual_network;pointerEvents=1;" vertex="1" parent="5">
                    <mxGeometry x="340" y="276.25" width="50" height="27.500000000000004" as="geometry"/>
                </mxCell>
                <mxCell id="13" value="snet-prd-us-002&lt;br&gt;10.2.1.0/24" style="sketch=0;outlineConnect=0;gradientColor=none;html=1;whiteSpace=wrap;fontSize=12;fontStyle=0;shape=mxgraph.aws4.group;grIcon=mxgraph.aws4.group_subnet;strokeColor=#879196;fillColor=none;verticalAlign=top;align=left;spacingLeft=30;fontColor=#879196;dashed=0;" vertex="1" parent="5">
                    <mxGeometry x="360" y="76.25" width="190" height="220" as="geometry"/>
                </mxCell>
                <mxCell id="16" style="edgeStyle=none;html=1;" edge="1" parent="5" source="15" target="13">
                    <mxGeometry relative="1" as="geometry"/>
                </mxCell>
                <mxCell id="17" style="edgeStyle=none;html=1;" edge="1" parent="5" source="15" target="9">
                    <mxGeometry relative="1" as="geometry"/>
                </mxCell>
                <mxCell id="15" value="Peering" style="aspect=fixed;html=1;points=[];align=center;image;fontSize=12;image=img/lib/azure2/other/Peering_Service.svg;" vertex="1" parent="5">
                    <mxGeometry x="272" y="151.75" width="68" height="69" as="geometry"/>
                </mxCell>
                <mxCell id="18" value="VM_SQL" style="aspect=fixed;html=1;points=[];align=center;image;fontSize=12;image=img/lib/azure2/databases/SQL_Database.svg;" vertex="1" parent="5">
                    <mxGeometry x="431" y="148" width="48" height="64" as="geometry"/>
                </mxCell>
            </root>
        </mxGraphModel>
    </diagram>
</mxfile>